<svg width="612" height="154" viewBox="0 0 612 154" fill="none" xmlns="http://www.w3.org/2000/svg">
<path d="M135 74.4L119.667 62.0667V53.6667C119.748 51.9831 119.159 50.3359 118.028 49.0862C116.897 47.8365 115.317 47.0863 113.633 47H75.6333C73.9619 47.1032 72.3984 47.8608 71.2816 49.1086C70.1648 50.3564 69.5846 51.9941 69.6667 53.6667V87C69.6357 88.3237 69.9996 89.6266 70.712 90.7427C71.4244 91.8587 72.453 92.7374 73.6667 93.2667C73.0528 94.7685 72.8135 96.3971 72.9695 98.012C73.1256 99.627 73.6722 101.18 74.5622 102.536C75.4523 103.893 76.659 105.012 78.0783 105.798C79.4976 106.584 81.0869 107.013 82.709 107.048C84.331 107.083 85.9372 106.722 87.3889 105.998C88.8406 105.273 90.0942 104.206 91.0415 102.889C91.9888 101.572 92.6015 100.044 92.8265 98.4376C93.0516 96.8308 92.8823 95.1934 92.3333 93.6667H113.533C112.985 95.1771 112.809 96.7974 113.02 98.3904C113.231 99.9833 113.822 101.502 114.744 102.818C115.667 104.134 116.892 105.208 118.318 105.95C119.743 106.691 121.326 107.078 122.933 107.078C124.54 107.078 126.123 106.691 127.549 105.95C128.974 105.208 130.2 104.134 131.122 102.818C132.045 101.502 132.636 99.9833 132.847 98.3904C133.058 96.7974 132.882 95.1771 132.333 93.6667H133C133.884 93.6667 134.732 93.3155 135.357 92.6904C135.982 92.0652 136.333 91.2174 136.333 90.3333V77C136.323 76.4938 136.198 75.9966 135.967 75.5461C135.736 75.0956 135.405 74.7037 135 74.4ZM129.667 78.6V87H119.667V70.6L129.667 78.6ZM86.3333 97C86.3333 97.6593 86.1378 98.3037 85.7716 98.8519C85.4053 99.4001 84.8847 99.8273 84.2756 100.08C83.6665 100.332 82.9963 100.398 82.3497 100.269C81.7031 100.141 81.1091 99.8232 80.643 99.357C80.1768 98.8908 79.8593 98.2969 79.7307 97.6503C79.6021 97.0037 79.6681 96.3335 79.9204 95.7244C80.1727 95.1153 80.5999 94.5947 81.1481 94.2284C81.6963 93.8622 82.3407 93.6667 83 93.6667C83.884 93.6667 84.7319 94.0179 85.357 94.643C85.9821 95.2681 86.3333 96.1159 86.3333 97ZM103 87H76.3333V53.6667H113V87H103ZM126.333 97C126.333 97.6593 126.138 98.3037 125.772 98.8519C125.405 99.4001 124.885 99.8273 124.276 100.08C123.667 100.332 122.996 100.398 122.35 100.269C121.703 100.141 121.109 99.8232 120.643 99.357C120.177 98.8908 119.859 98.2969 119.731 97.6503C119.602 97.0037 119.668 96.3335 119.92 95.7244C120.173 95.1153 120.6 94.5947 121.148 94.2284C121.696 93.8622 122.341 93.6667 123 93.6667C123.884 93.6667 124.732 94.0179 125.357 94.643C125.982 95.2681 126.333 96.1159 126.333 97Z" fill="white"/>
<path d="M159.55 65.85C159.55 64.4167 160.6 63.7 162.7 63.7C163.6 63.7 165.317 63.7333 167.85 63.8C170.65 63.9333 172.767 64 174.2 64C175.367 64 176.783 63.9333 178.45 63.8C179.583 63.7333 180.3 63.7 180.6 63.7C182.433 63.7667 183.983 64.1 185.25 64.7C185.617 64.8667 185.917 65.0667 186.15 65.3C186.383 65.5333 186.5 65.9167 186.5 66.45C186.5 67.1833 186.267 67.8167 185.8 68.35C185.333 68.85 184.767 69.1 184.1 69.1C183.367 69.1 182.3 69 180.9 68.8C179.667 68.5667 178.583 68.45 177.65 68.45C176.75 68.45 176.067 68.4667 175.6 68.5C175.5 69.6 175.45 72.2333 175.45 76.4C175.45 81.3667 175.6 86.4 175.9 91.5L176 92.95C176 94.3167 175.217 95 173.65 95C172.417 95 171.583 94.7167 171.15 94.15C170.717 93.55 170.5 92.65 170.5 91.45C170.5 89.0833 170.433 86.1333 170.3 82.6C170.167 79.6667 170.1 77.5833 170.1 76.35C170.1 75.5167 170.2 72.9667 170.4 68.7L164.55 68.75C162.683 68.75 161.383 68.5833 160.65 68.25C159.917 67.8833 159.55 67.0833 159.55 65.85ZM192.227 62.9C193.394 63 194.411 63.3167 195.277 63.85C196.144 64.35 196.577 65.1167 196.577 66.15C196.577 66.9167 196.211 67.5333 195.477 68C194.777 68.4333 193.927 68.65 192.927 68.65C191.961 68.65 191.294 68.4 190.927 67.9C190.561 67.4 190.377 66.8833 190.377 66.35C190.377 65.35 190.477 64.5167 190.677 63.85C190.911 63.1833 191.427 62.8667 192.227 62.9ZM196.227 85.05V86.5C196.227 87.8 196.261 89.0333 196.327 90.2C196.427 91.3333 196.544 92.4833 196.677 93.65C196.644 93.9833 196.394 94.3333 195.927 94.7C195.461 95.0333 195.044 95.2 194.677 95.2C194.044 95.2 193.394 95.0833 192.727 94.85C192.094 94.5833 191.711 94.2667 191.577 93.9C191.377 92.8333 191.277 91.8833 191.277 91.05C191.277 88.3167 191.194 85.25 191.027 81.85C190.894 78.85 190.827 76.75 190.827 75.55C190.827 74.95 191.127 74.4333 191.727 74C192.327 73.5667 192.961 73.35 193.627 73.35C194.594 73.35 195.261 73.5667 195.627 74C196.027 74.4333 196.227 75.1167 196.227 76.05V85.05ZM220.22 78.3C220.22 79.7667 219.47 80.5 217.97 80.5C217.47 80.5 217.054 80.3833 216.72 80.15C216.387 79.9167 216.02 79.5667 215.62 79.1C214.62 78 213.754 77.45 213.02 77.45C212.054 77.45 211.104 77.7333 210.17 78.3C209.27 78.8667 208.537 79.6667 207.97 80.7C207.404 81.7333 207.12 82.8833 207.12 84.15C207.12 85.55 207.387 86.7167 207.92 87.65C208.487 88.5833 209.354 89.3833 210.52 90.05C210.954 90.2833 211.454 90.4667 212.02 90.6C212.62 90.7333 213.137 90.8 213.57 90.8C214.537 90.8 215.754 90.4167 217.22 89.65C217.754 89.3833 218.204 89.1833 218.57 89.05C218.937 88.9167 219.32 88.85 219.72 88.85C220.087 88.85 220.504 89.0167 220.97 89.35C221.437 89.6833 221.67 90.1 221.67 90.6C221.67 91.6 221.204 92.45 220.27 93.15C219.337 93.8167 218.187 94.3333 216.82 94.7C215.487 95.0333 214.204 95.2 212.97 95.2C211.004 95.2 209.17 94.75 207.47 93.85C205.804 92.95 204.47 91.7167 203.47 90.15C202.47 88.55 201.97 86.75 201.97 84.75C201.97 82.6167 202.454 80.6667 203.42 78.9C204.387 77.1333 205.687 75.75 207.32 74.75C208.954 73.75 210.737 73.25 212.67 73.25C213.77 73.25 214.904 73.45 216.07 73.85C217.237 74.25 218.22 74.8333 219.02 75.6C219.82 76.3667 220.22 77.2667 220.22 78.3ZM245.958 90.45C246.524 90.8833 246.908 91.3 247.108 91.7C247.308 92.1 247.408 92.6 247.408 93.2C247.408 93.7 247.141 94.1667 246.608 94.6C246.108 95 245.641 95.2 245.208 95.2C244.841 95.2 244.408 95.0833 243.908 94.85C243.408 94.6167 243.024 94.35 242.758 94.05C242.391 93.75 241.674 93.0167 240.608 91.85C239.574 90.6833 238.808 89.7667 238.308 89.1C237.108 87.6 236.508 86.85 236.508 86.85L234.758 84.7L231.558 87.3L231.758 92.75C231.758 93.65 231.524 94.2833 231.058 94.65C230.624 95.0167 230.191 95.2 229.758 95.2C229.124 95.2 228.558 95.0833 228.058 94.85C227.591 94.6167 227.308 94.35 227.208 94.05C226.841 92.7167 226.658 90.9667 226.658 88.8C226.658 84.7333 226.724 81.4833 226.858 79.05C226.991 76.0167 227.058 73.15 227.058 70.45C227.058 69.6167 226.958 68.4667 226.758 67C226.724 66.7 226.674 66.2167 226.608 65.55C226.541 64.8833 226.508 64.2833 226.508 63.75C226.508 62.9833 226.758 62.3833 227.258 61.95C227.791 61.5167 228.474 61.3 229.308 61.3C229.974 61.3 230.508 61.5167 230.908 61.95C231.341 62.35 231.558 62.9167 231.558 63.65C231.558 64.75 231.591 66.2 231.658 68C231.724 69.8 231.758 71.1167 231.758 71.95C231.758 72.9833 231.724 74.3667 231.658 76.1C231.591 77.0333 231.558 77.7333 231.558 78.2C231.558 79.6667 231.574 80.8833 231.608 81.85C232.808 80.6167 234.408 79.1833 236.408 77.55C238.441 75.8833 240.024 74.7167 241.158 74.05C242.424 73.2833 243.191 72.9 243.458 72.9C244.158 72.9 244.758 73.05 245.258 73.35C245.758 73.65 246.008 74.1 246.008 74.7C246.008 75.3 245.924 75.7667 245.758 76.1C245.591 76.4 245.291 76.7167 244.858 77.05L238.408 81.75C239.841 83.5167 241.324 85.3167 242.858 87.15C244.391 88.95 245.424 90.05 245.958 90.45ZM256.996 87.25C256.996 88.5167 257.179 89.5 257.546 90.2C257.946 90.8667 258.446 91.2 259.046 91.2C259.379 91.2 259.696 91.1833 259.996 91.15C260.296 91.0833 260.596 91.05 260.896 91.05C261.229 91.05 261.513 91.2167 261.746 91.55C262.013 91.8833 262.146 92.25 262.146 92.65C262.146 93.45 261.763 94.0833 260.996 94.55C260.263 94.9833 259.263 95.2 257.996 95.2C257.096 95.2 256.179 94.9333 255.246 94.4C254.346 93.8333 253.596 92.9667 252.996 91.8C252.396 90.6 252.096 89.1167 252.096 87.35C252.096 83.55 252.163 80.3333 252.296 77.7C252.463 74.5667 252.546 70.6167 252.546 65.85C252.546 64.35 252.629 63.3 252.796 62.7C252.996 62.2333 253.313 61.8833 253.746 61.65C254.213 61.3833 254.696 61.25 255.196 61.25C255.696 61.25 256.129 61.3333 256.496 61.5C256.896 61.6667 257.163 61.9333 257.296 62.3C257.429 62.7 257.513 63.1 257.546 63.5C257.613 63.8667 257.646 64.4 257.646 65.1C257.646 66.4667 257.596 67.7833 257.496 69.05C257.429 70.5833 257.396 71.7 257.396 72.4C257.129 78.2667 256.996 83.2167 256.996 87.25ZM265.056 83.55C265.056 81.5167 265.506 79.8333 266.406 78.5C267.306 77.1333 268.556 75.85 270.156 74.65C270.623 74.3167 271.406 74.0333 272.506 73.8C273.606 73.5333 274.573 73.4 275.406 73.4C276.406 73.4 277.456 73.6167 278.556 74.05C279.69 74.45 280.606 74.9167 281.306 75.45C282.54 76.35 283.39 77.4 283.856 78.6C284.323 79.7667 284.556 81.1667 284.556 82.8C284.556 83.5 284.156 84.1833 283.356 84.85C282.59 85.4833 281.756 85.8 280.856 85.8L278.956 85.75C277.99 85.75 276.606 85.7833 274.806 85.85L273.756 85.9C273.023 85.9667 272.473 86 272.106 86C271.573 86 270.84 85.9333 269.906 85.8C270.04 87.3667 270.623 88.6 271.656 89.5C272.69 90.3667 273.806 90.8 275.006 90.8C277.106 90.8 278.573 90.3833 279.406 89.55C280.106 89.05 280.573 88.7333 280.806 88.6C281.04 88.4667 281.406 88.4 281.906 88.4C282.44 88.4 282.906 88.65 283.306 89.15C283.706 89.65 283.906 90.15 283.906 90.65C283.906 91.2167 283.556 91.8 282.856 92.4C282.19 92.9667 281.273 93.5667 280.106 94.2C279.473 94.4667 278.606 94.7 277.506 94.9C276.406 95.1 275.49 95.2 274.756 95.2C273.59 95.2 272.29 94.8667 270.856 94.2C269.423 93.5 268.356 92.7333 267.656 91.9C266.956 91.0667 266.34 89.8833 265.806 88.35C265.306 86.8167 265.056 85.2167 265.056 83.55ZM275.006 82.2C277.373 82.2 279.106 82.1167 280.206 81.95C280.14 80.9833 279.84 80.2 279.306 79.6C278.773 78.9667 278.04 78.4333 277.106 78C276.806 77.8667 276.54 77.7667 276.306 77.7C276.073 77.6333 275.806 77.6 275.506 77.6C273.973 77.6 272.673 78.0167 271.606 78.85C270.573 79.6833 269.956 80.75 269.756 82.05C271.423 82.15 273.173 82.2 275.006 82.2ZM287.187 65.85C287.187 64.4167 288.237 63.7 290.337 63.7C291.237 63.7 292.953 63.7333 295.487 63.8C298.287 63.9333 300.403 64 301.837 64C303.003 64 304.42 63.9333 306.087 63.8C307.22 63.7333 307.937 63.7 308.237 63.7C310.07 63.7667 311.62 64.1 312.887 64.7C313.253 64.8667 313.553 65.0667 313.787 65.3C314.02 65.5333 314.137 65.9167 314.137 66.45C314.137 67.1833 313.903 67.8167 313.437 68.35C312.97 68.85 312.403 69.1 311.737 69.1C311.003 69.1 309.937 69 308.537 68.8C307.303 68.5667 306.22 68.45 305.287 68.45C304.387 68.45 303.703 68.4667 303.237 68.5C303.137 69.6 303.087 72.2333 303.087 76.4C303.087 81.3667 303.237 86.4 303.537 91.5L303.637 92.95C303.637 94.3167 302.853 95 301.287 95C300.053 95 299.22 94.7167 298.787 94.15C298.353 93.55 298.137 92.65 298.137 91.45C298.137 89.0833 298.07 86.1333 297.937 82.6C297.803 79.6667 297.737 77.5833 297.737 76.35C297.737 75.5167 297.837 72.9667 298.037 68.7L292.187 68.75C290.32 68.75 289.02 68.5833 288.287 68.25C287.553 67.8833 287.187 67.0833 287.187 65.85ZM319.764 62.9C320.931 63 321.931 63.3167 322.764 63.85C323.631 64.35 324.064 65.1167 324.064 66.15C324.064 66.9167 323.714 67.5333 323.014 68C322.314 68.4333 321.447 68.65 320.414 68.65C319.447 68.65 318.781 68.4 318.414 67.9C318.047 67.4 317.864 66.8833 317.864 66.35C317.864 65.3833 317.981 64.5667 318.214 63.9C318.447 63.2 318.964 62.8667 319.764 62.9ZM318.764 83.55V82.1C318.764 80.4333 318.681 78.9167 318.514 77.55C318.381 76.15 318.297 75.2833 318.264 74.95C318.297 74.5833 318.547 74.2333 319.014 73.9C319.481 73.5667 319.897 73.4 320.264 73.4C320.897 73.4 321.531 73.5333 322.164 73.8C322.831 74.0333 323.247 74.3333 323.414 74.7C323.581 75.9333 323.664 76.8833 323.664 77.55C323.664 79.0167 323.731 81.4167 323.864 84.75L323.914 86.7L324.014 88.6C324.047 89.1333 324.081 89.7667 324.114 90.5C324.147 91.2333 324.164 92.0667 324.164 93C324.164 93.6333 323.847 94.1667 323.214 94.6C322.614 95.0333 321.981 95.25 321.314 95.25C320.347 95.25 319.664 95.0333 319.264 94.6C318.897 94.1667 318.714 93.4833 318.714 92.55L318.764 83.55ZM361.559 93.25C361.059 92.3167 360.743 91.2833 360.609 90.15C360.476 88.9833 360.409 87.3833 360.409 85.35C360.409 83.4167 360.143 81.7333 359.609 80.3C359.076 78.8667 357.976 78.15 356.309 78.15C355.676 78.15 355.043 78.35 354.409 78.75C353.809 79.1167 353.359 79.5833 353.059 80.15C352.593 81.05 352.276 82.0333 352.109 83.1C351.943 84.1333 351.859 85.3333 351.859 86.7C351.859 87.5667 351.909 88.45 352.009 89.35C352.009 89.6167 352.026 90.05 352.059 90.65C352.126 91.2167 352.159 91.7333 352.159 92.2C352.159 94.2 351.459 95.2 350.059 95.2C348.226 95.2 347.259 94.2333 347.159 92.3C347.159 90.9333 347.176 90.2 347.209 90.1V87.95C347.209 86.75 347.159 85.5833 347.059 84.45C346.959 83.3167 346.843 82.4667 346.709 81.9C346.409 80.8 346.009 79.95 345.509 79.35C345.043 78.75 344.293 78.45 343.259 78.45C341.793 78.45 340.609 79.0833 339.709 80.35C339.076 81.35 338.659 82.5667 338.459 84C338.259 85.8333 338.109 87.2833 338.009 88.35C337.943 89.3833 337.909 90.5833 337.909 91.95C337.909 92.9167 337.743 93.7 337.409 94.3C337.109 94.9 336.526 95.2 335.659 95.2C335.026 95.2 334.359 95.0333 333.659 94.7C332.993 94.3333 332.659 93.85 332.659 93.25C332.659 92.6167 332.726 91.9833 332.859 91.35C333.159 89.45 333.309 86.05 333.309 81.15C333.309 80.35 333.109 79.5833 332.709 78.85C332.343 78.0833 331.893 77.7 331.359 77.7C331.226 77.7 330.976 77.7667 330.609 77.9C330.276 78.0333 330.026 78.1 329.859 78.1C329.426 78.1 329.026 77.9 328.659 77.5C328.326 77.1 328.159 76.7667 328.159 76.5C328.159 75.6667 328.559 74.9667 329.359 74.4C330.193 73.8 331.059 73.5 331.959 73.5C333.193 73.5 334.243 73.8833 335.109 74.65C335.976 75.4167 336.643 76.4833 337.109 77.85C337.876 76.5167 338.909 75.45 340.209 74.65C341.509 73.8167 342.959 73.4 344.559 73.4C345.559 73.4 346.359 73.5333 346.959 73.8C347.593 74.0333 348.109 74.3833 348.509 74.85C348.909 75.2833 349.426 75.95 350.059 76.85C350.893 75.7833 351.959 74.95 353.259 74.35C354.593 73.75 355.959 73.45 357.359 73.45C359.026 73.45 360.526 74.1333 361.859 75.5C363.193 76.8333 364.093 78.3833 364.559 80.15C364.793 81.05 364.909 82.7833 364.909 85.35L365.109 88.25C365.276 89.9833 365.843 91.0333 366.809 91.4C367.943 91.7333 368.509 92.0833 368.509 92.45C368.509 93.25 368.309 93.8333 367.909 94.2C367.609 94.4 367.193 94.6167 366.659 94.85C366.126 95.0833 365.709 95.2 365.409 95.2C363.609 95.2 362.326 94.55 361.559 93.25ZM371.65 84.4C371.65 83.1333 371.884 81.8667 372.35 80.6C372.817 79.3 373.434 78.1167 374.2 77.05C374.967 75.9833 376.184 75.1167 377.85 74.45C379.517 73.75 381 73.4 382.3 73.4C383.634 73.4 384.984 73.5833 386.35 73.95C387.75 74.3167 388.717 74.8833 389.25 75.65C390.484 77.3833 391.1 79.0833 391.1 80.75C391.1 81.65 390.9 82.4167 390.5 83.05C390.134 83.6833 389.6 84.3667 388.9 85.1C388.334 85.7 387.434 86.1 386.2 86.3C385 86.5 383.8 86.6 382.6 86.6C381.834 86.6 380.9 86.5333 379.8 86.4C378.7 86.2333 377.634 86.0333 376.6 85.8C376.667 86.4667 376.834 87.1167 377.1 87.75C377.367 88.3833 377.684 88.8667 378.05 89.2C378.717 89.8333 379.4 90.2333 380.1 90.4C380.834 90.5667 381.767 90.65 382.9 90.65C384.1 90.65 385.217 90.45 386.25 90.05C387.084 89.75 387.767 89.6 388.3 89.6C388.934 89.6 389.417 89.8 389.75 90.2C390.084 90.5667 390.25 91.05 390.25 91.65C390.25 92.4833 389.767 93.1667 388.8 93.7C387.834 94.2333 386.717 94.6333 385.45 94.9C384.217 95.1333 383.217 95.25 382.45 95.25C380.884 95.25 379.367 94.9667 377.9 94.4C376.434 93.8333 375.217 93.0333 374.25 92C373.45 91.0667 372.817 89.95 372.35 88.65C371.884 87.3167 371.65 85.9 371.65 84.4ZM382.55 77.65C381.817 77.65 381.084 77.8 380.35 78.1C379.617 78.3667 379.017 78.75 378.55 79.25C377.95 79.8833 377.534 80.4 377.3 80.8C377.1 81.1667 376.967 81.6833 376.9 82.35C377.734 82.6167 379.467 82.75 382.1 82.75C383.534 82.75 384.634 82.5333 385.4 82.1C386.2 81.6667 386.6 81.1 386.6 80.4C386.6 79.7 386.167 79.0667 385.3 78.5C384.434 77.9333 383.517 77.65 382.55 77.65ZM424.859 81.75C427.759 86.6833 430.476 90.6 433.009 93.5C433.276 93.7667 433.409 94.0667 433.409 94.4C433.409 94.8333 433.142 95.2 432.609 95.5C432.076 95.8333 431.459 96 430.759 96C429.726 96 428.609 95.5667 427.409 94.7C426.542 94.1 425.742 93.2167 425.009 92.05C424.276 90.85 423.442 89.3167 422.509 87.45L421.659 85.75C420.792 84.1833 420.276 83.2667 420.109 83C419.376 83.3 418.526 83.5167 417.559 83.65C416.592 83.7833 415.409 83.9 414.009 84C414.076 88.2667 414.109 91.25 414.109 92.95C414.109 93.5833 413.876 94.1 413.409 94.5C412.942 94.8667 412.359 95.05 411.659 95.05C410.792 95.05 410.126 94.7 409.659 94C409.192 93.0667 408.959 91.6167 408.959 89.65L409.009 86C409.009 83.7333 409.059 81.5833 409.159 79.55C409.226 76.8833 409.259 74.9167 409.259 73.65L409.309 71.1C409.309 70.3333 409.259 69.55 409.159 68.75C408.626 68.5833 408.159 68.3333 407.759 68C407.359 67.6333 407.159 67.2333 407.159 66.8C407.159 65.9667 407.459 65.3333 408.059 64.9C408.692 64.4333 409.476 64.1333 410.409 64C413.109 63.5667 415.742 63.35 418.309 63.35C422.676 63.35 426.292 64.1667 429.159 65.8C432.026 67.4333 433.459 69.9167 433.459 73.25C433.459 74.2833 433.226 75.2833 432.759 76.25C432.326 77.1833 431.726 77.9667 430.959 78.6C428.959 80.1667 426.926 81.2167 424.859 81.75ZM428.159 73.1C428.159 71.5 427.309 70.2 425.609 69.2C423.942 68.1667 421.542 67.65 418.409 67.65C417.042 67.65 415.642 67.8167 414.209 68.15C414.276 69.35 414.309 70.2 414.309 70.7C414.309 71.7 414.242 73.1333 414.109 75C414.042 76.8667 414.009 78.3667 414.009 79.5C416.242 79.5 418.376 79.2 420.409 78.6C421.876 78.1667 423.109 77.75 424.109 77.35C425.109 76.95 426.026 76.4 426.859 75.7C427.726 74.9667 428.159 74.1 428.159 73.1ZM437.42 83.55C437.42 81.5167 437.87 79.8333 438.77 78.5C439.67 77.1333 440.92 75.85 442.52 74.65C442.986 74.3167 443.77 74.0333 444.87 73.8C445.97 73.5333 446.936 73.4 447.77 73.4C448.77 73.4 449.82 73.6167 450.92 74.05C452.053 74.45 452.97 74.9167 453.67 75.45C454.903 76.35 455.753 77.4 456.22 78.6C456.686 79.7667 456.92 81.1667 456.92 82.8C456.92 83.5 456.52 84.1833 455.72 84.85C454.953 85.4833 454.12 85.8 453.22 85.8L451.32 85.75C450.353 85.75 448.97 85.7833 447.17 85.85L446.12 85.9C445.386 85.9667 444.836 86 444.47 86C443.936 86 443.203 85.9333 442.27 85.8C442.403 87.3667 442.986 88.6 444.02 89.5C445.053 90.3667 446.17 90.8 447.37 90.8C449.47 90.8 450.936 90.3833 451.77 89.55C452.47 89.05 452.936 88.7333 453.17 88.6C453.403 88.4667 453.77 88.4 454.27 88.4C454.803 88.4 455.27 88.65 455.67 89.15C456.07 89.65 456.27 90.15 456.27 90.65C456.27 91.2167 455.92 91.8 455.22 92.4C454.553 92.9667 453.636 93.5667 452.47 94.2C451.836 94.4667 450.97 94.7 449.87 94.9C448.77 95.1 447.853 95.2 447.12 95.2C445.953 95.2 444.653 94.8667 443.22 94.2C441.786 93.5 440.72 92.7333 440.02 91.9C439.32 91.0667 438.703 89.8833 438.17 88.35C437.67 86.8167 437.42 85.2167 437.42 83.55ZM447.37 82.2C449.736 82.2 451.47 82.1167 452.57 81.95C452.503 80.9833 452.203 80.2 451.67 79.6C451.136 78.9667 450.403 78.4333 449.47 78C449.17 77.8667 448.903 77.7667 448.67 77.7C448.436 77.6333 448.17 77.6 447.87 77.6C446.336 77.6 445.036 78.0167 443.97 78.85C442.936 79.6833 442.32 80.75 442.12 82.05C443.786 82.15 445.536 82.2 447.37 82.2ZM461.25 77.4C460.983 77.2 460.767 77 460.6 76.8C460.433 76.5667 460.35 76.1667 460.35 75.6C460.35 74.9667 460.567 74.4833 461 74.15C461.467 73.7833 462 73.6 462.6 73.6C463.767 73.6 464.767 73.9 465.6 74.5C466.467 75.1 467.1 75.9333 467.5 77C468.233 75.6333 469.167 74.7 470.3 74.2C471.433 73.6667 473 73.4 475 73.4C475.8 73.4 476.617 73.65 477.45 74.15C478.317 74.6167 479.1 75.2 479.8 75.9C480.367 76.6333 480.85 77.55 481.25 78.65C481.65 79.7167 481.85 80.6833 481.85 81.55C481.85 82.05 481.817 82.8667 481.75 84C481.683 85.2 481.65 86.15 481.65 86.85C481.65 89.1833 482.1 90.6167 483 91.15C483.133 91.2167 483.383 91.3 483.75 91.4C484.117 91.5 484.383 91.6 484.55 91.7C484.75 91.8 484.85 91.95 484.85 92.15C484.883 92.95 484.583 93.6167 483.95 94.15C483.35 94.65 482.617 94.9 481.75 94.9C480.45 94.9 479.433 94.55 478.7 93.85C477.967 93.15 477.45 92.0833 477.15 90.65C476.983 90.1167 476.9 89.3333 476.9 88.3C476.9 87.7333 476.933 86.8167 477 85.55C477.1 84.55 477.15 83.4833 477.15 82.35C477.15 81.1833 476.817 80.1667 476.15 79.3C475.483 78.4 474.567 77.95 473.4 77.95C472.7 77.95 471.967 78.1667 471.2 78.6C470.433 79 469.9 79.5 469.6 80.1C469.1 81.1333 468.767 82.1833 468.6 83.25C468.2 85.3167 468 87.3 468 89.2C468 89.6667 468.033 90.5667 468.1 91.9C468.1 92 468.1 92.25 468.1 92.65C468.1 93.0167 468.05 93.3667 467.95 93.7C467.883 94.0333 467.75 94.3333 467.55 94.6C467.417 94.7333 467.167 94.8667 466.8 95C466.433 95.1333 466.117 95.2 465.85 95.2C465.383 95.2 464.8 95 464.1 94.6C463.4 94.2 462.983 93.75 462.85 93.25L462.8 92.55C462.8 92.2833 462.833 91.8833 462.9 91.35C463.3 89.0167 463.5 86.9833 463.5 85.25C463.5 84.4833 463.483 83.9 463.45 83.5L463.4 81.2C463.4 80.5 463.2 79.8333 462.8 79.2C462.4 78.5333 461.883 77.9333 461.25 77.4ZM488.41 77.7C487.943 77.6333 487.56 77.4333 487.26 77.1C486.993 76.7667 486.86 76.3667 486.86 75.9C486.86 75.6667 486.91 75.4167 487.01 75.15C487.143 74.8833 487.327 74.65 487.56 74.45C487.993 74.0833 488.577 73.7333 489.31 73.4C490.077 73.1 490.627 72.7333 490.96 72.3C491.293 71.8667 491.46 71.05 491.46 69.85C491.46 69.35 491.427 68.9167 491.36 68.55C491.327 68.1833 491.31 67.9 491.31 67.7C491.31 66.9667 491.577 66.4167 492.11 66.05C492.643 65.6833 493.26 65.5 493.96 65.5C494.827 65.5 495.41 65.7167 495.71 66.15C496.043 66.5833 496.21 67.3833 496.21 68.55C496.21 69.6833 496.16 70.6667 496.06 71.5C495.96 72.3 495.743 73.0167 495.41 73.65C495.877 73.65 496.643 73.6167 497.71 73.55C499.177 73.4833 500.193 73.45 500.76 73.45C501.327 73.45 501.827 73.6 502.26 73.9C502.693 74.1667 502.91 74.55 502.91 75.05C502.91 75.75 502.76 76.2667 502.46 76.6C502.16 76.9333 501.727 77.15 501.16 77.25C499.793 77.6167 497.86 77.8333 495.36 77.9C495.293 79.2 495.26 80.6167 495.26 82.15C495.26 84.7167 495.41 86.6833 495.71 88.05C495.91 89.1167 496.243 89.9 496.71 90.4C497.21 90.8667 497.943 91.1 498.91 91.1C499.41 91.1 499.81 91.0333 500.11 90.9C500.443 90.7667 500.627 90.6833 500.66 90.65C501.06 90.4167 501.427 90.3 501.76 90.3C502.227 90.3 502.56 90.45 502.76 90.75C502.993 91.05 503.11 91.45 503.11 91.95C503.11 92.8833 502.61 93.6667 501.61 94.3C500.61 94.9 499.327 95.2 497.76 95.2C495.993 95.2 494.493 94.6833 493.26 93.65C492.06 92.5833 491.343 91.1833 491.11 89.45C490.777 87.8833 490.61 85.6833 490.61 82.85C490.61 81.6167 490.677 79.9667 490.81 77.9L488.41 77.7ZM529.809 92.6C529.809 93.3333 529.409 93.95 528.609 94.45C527.809 94.95 527.076 95.2 526.409 95.2C525.176 95.2 524.176 95.05 523.409 94.75C522.676 94.4167 521.976 93.8167 521.309 92.95C520.476 93.7167 519.309 94.3 517.809 94.7C516.309 95.0667 514.926 95.25 513.659 95.25C511.592 95.25 509.876 94.7 508.509 93.6C507.176 92.4667 506.509 90.8167 506.509 88.65C506.509 87.7167 506.792 86.7833 507.359 85.85C507.926 84.8833 508.626 84.1167 509.459 83.55C510.359 82.95 511.376 82.55 512.509 82.35C513.642 82.1167 514.959 82 516.459 82C517.159 82 517.992 82.1333 518.959 82.4C519.926 82.6667 520.692 82.95 521.259 83.25V82.45C521.259 80.65 520.809 79.4167 519.909 78.75C519.042 78.05 517.642 77.7 515.709 77.7C515.109 77.7 514.559 77.8 514.059 78C513.592 78.1667 513.042 78.4167 512.409 78.75C511.809 79.0833 511.242 79.25 510.709 79.25C510.242 79.25 509.792 79.0667 509.359 78.7C508.926 78.3 508.709 77.8833 508.709 77.45C508.709 76.05 509.576 75.0333 511.309 74.4C513.076 73.7333 514.876 73.4 516.709 73.4C517.642 73.4 518.709 73.6 519.909 74C521.109 74.3667 522.126 74.8833 522.959 75.55C523.959 76.3833 524.726 77.3833 525.259 78.55C525.826 79.7167 526.109 80.9833 526.109 82.35C526.109 82.7833 526.076 83.4333 526.009 84.3C525.942 85.2333 525.909 86.0333 525.909 86.7L525.859 88.05C525.792 88.7833 525.759 89.3667 525.759 89.8C525.759 90.2 525.892 90.55 526.159 90.85C526.459 91.1167 526.809 91.25 527.209 91.25L528.609 91.2C528.976 91.2 529.259 91.35 529.459 91.65C529.692 91.9167 529.809 92.2333 529.809 92.6ZM513.659 91.3C515.092 91.3 516.292 91.15 517.259 90.85C518.226 90.55 519.392 90 520.759 89.2C520.892 88.6333 520.976 87.8833 521.009 86.95C519.176 86.0833 517.659 85.65 516.459 85.65C515.326 85.65 514.409 85.7 513.709 85.8C513.009 85.8667 512.376 86.15 511.809 86.65C511.242 87.15 510.959 87.95 510.959 89.05C510.959 89.6833 511.259 90.2167 511.859 90.65C512.492 91.0833 513.092 91.3 513.659 91.3ZM538.637 87.25C538.637 88.5167 538.82 89.5 539.187 90.2C539.587 90.8667 540.087 91.2 540.687 91.2C541.02 91.2 541.337 91.1833 541.637 91.15C541.937 91.0833 542.237 91.05 542.537 91.05C542.87 91.05 543.153 91.2167 543.387 91.55C543.653 91.8833 543.787 92.25 543.787 92.65C543.787 93.45 543.403 94.0833 542.637 94.55C541.903 94.9833 540.903 95.2 539.637 95.2C538.737 95.2 537.82 94.9333 536.887 94.4C535.987 93.8333 535.237 92.9667 534.637 91.8C534.037 90.6 533.737 89.1167 533.737 87.35C533.737 83.55 533.803 80.3333 533.937 77.7C534.103 74.5667 534.187 70.6167 534.187 65.85C534.187 64.35 534.27 63.3 534.437 62.7C534.637 62.2333 534.953 61.8833 535.387 61.65C535.853 61.3833 536.337 61.25 536.837 61.25C537.337 61.25 537.77 61.3333 538.137 61.5C538.537 61.6667 538.803 61.9333 538.937 62.3C539.07 62.7 539.153 63.1 539.187 63.5C539.253 63.8667 539.287 64.4 539.287 65.1C539.287 66.4667 539.237 67.7833 539.137 69.05C539.07 70.5833 539.037 71.7 539.037 72.4C538.77 78.2667 538.637 83.2167 538.637 87.25ZM561.197 84.2C561.464 84.3667 561.98 84.6833 562.747 85.15C563.547 85.5833 564.08 86.1 564.347 86.7C564.614 87.3 564.747 88.1333 564.747 89.2C564.747 90.4 564.397 91.4667 563.697 92.4C562.997 93.3 562.097 94 560.997 94.5C560.23 94.8333 559.397 95.0333 558.497 95.1C557.63 95.1667 556.58 95.2 555.347 95.2C554.68 95.2 553.814 95.1 552.747 94.9C551.714 94.7 550.997 94.5167 550.597 94.35C549.53 93.75 548.63 93.05 547.897 92.25C547.164 91.45 546.797 90.6333 546.797 89.8C546.797 89.1333 547.014 88.6 547.447 88.2C547.88 87.8 548.447 87.6 549.147 87.6C549.514 87.6 549.864 87.7 550.197 87.9C550.564 88.0667 550.814 88.2667 550.947 88.5C551.314 89.3667 551.93 90.0167 552.797 90.45C553.664 90.8833 554.547 91.1 555.447 91.1C558.614 91.1 560.197 90.5333 560.197 89.4C560.197 89.1 560.114 88.8667 559.947 88.7C559.814 88.5 559.614 88.3 559.347 88.1C558.914 87.8 558.297 87.4833 557.497 87.15C556.73 86.8167 556.047 86.5667 555.447 86.4C554.08 86.1 552.747 85.65 551.447 85.05C550.247 84.45 549.264 83.6667 548.497 82.7C547.73 81.7 547.347 80.4833 547.347 79.05C547.347 78.1833 547.664 77.3333 548.297 76.5C548.964 75.6333 549.73 74.9833 550.597 74.55C551.197 74.3167 552.18 74.0667 553.547 73.8C554.914 73.5333 555.847 73.4 556.347 73.4C557.114 73.4 557.947 73.4833 558.847 73.65C559.747 73.7833 560.43 74.0167 560.897 74.35C561.797 74.8833 562.53 75.45 563.097 76.05C563.664 76.6167 563.947 77.2667 563.947 78C563.947 78.3667 563.864 78.7667 563.697 79.2C563.53 79.6 563.33 79.85 563.097 79.95C562.597 80.1833 562.014 80.3 561.347 80.3C561.047 80.3 560.797 80.2167 560.597 80.05C560.43 79.8833 560.197 79.6167 559.897 79.25C559.53 78.6833 559.18 78.35 558.847 78.25C558.447 78.15 557.864 78.0333 557.097 77.9C556.33 77.7333 555.814 77.65 555.547 77.65C554.714 77.65 553.914 77.8167 553.147 78.15C552.414 78.4833 552.047 78.9333 552.047 79.5C552.047 80.1667 552.597 80.7333 553.697 81.2C554.397 81.5333 555.164 81.8167 555.997 82.05C556.864 82.2833 557.397 82.4333 557.597 82.5C558.064 82.6 558.664 82.8333 559.397 83.2C560.164 83.5667 560.764 83.9 561.197 84.2Z" fill="#ECE3CA"/>
</svg>
