<svg width="500" height="500" viewBox="0 0 500 500" fill="none" xmlns="http://www.w3.org/2000/svg">
<path d="M410 237L333.333 175.333V133.333C333.741 124.916 330.795 116.68 325.14 110.431C319.485 104.183 311.583 100.431 303.166 100H113.167C104.809 100.516 96.9919 104.304 91.4078 110.543C85.8238 116.782 82.9227 124.97 83.3332 133.333V300C83.1785 306.618 84.9981 313.133 88.56 318.713C92.1219 324.294 97.2648 328.687 103.333 331.333C100.264 338.842 99.0675 346.986 99.8476 355.06C100.628 363.135 103.361 370.898 107.811 377.681C112.261 384.464 118.295 390.062 125.392 393.992C132.488 397.922 140.434 400.067 148.545 400.24C156.655 400.414 164.686 398.612 171.944 394.989C179.203 391.367 185.471 386.032 190.207 379.447C194.944 372.861 198.007 365.222 199.132 357.188C200.258 349.154 199.411 340.967 196.666 333.333H302.666C299.925 340.886 299.045 348.987 300.099 356.952C301.153 364.917 304.111 372.51 308.722 379.089C313.333 385.668 319.462 391.04 326.589 394.748C333.716 398.456 341.632 400.392 349.666 400.392C357.701 400.392 365.617 398.456 372.744 394.748C379.871 391.04 386 385.668 390.611 379.089C395.222 372.51 398.18 364.917 399.234 356.952C400.288 348.987 399.408 340.886 396.666 333.333H400C404.42 333.333 408.659 331.577 411.785 328.452C414.911 325.326 416.666 321.087 416.666 316.667V250C416.615 247.469 415.989 244.983 414.833 242.731C413.678 240.478 412.025 238.518 410 237ZM383.333 258V300H333.333V218L383.333 258ZM166.666 350C166.666 353.296 165.689 356.519 163.858 359.26C162.026 362 159.423 364.137 156.378 365.398C153.332 366.659 149.981 366.99 146.748 366.346C143.515 365.703 140.546 364.116 138.215 361.785C135.884 359.454 134.296 356.485 133.653 353.252C133.01 350.018 133.34 346.667 134.602 343.622C135.863 340.577 138 337.974 140.74 336.142C143.481 334.311 146.703 333.333 150 333.333C154.42 333.333 158.659 335.089 161.785 338.215C164.911 341.34 166.666 345.58 166.666 350ZM250 300H116.667V133.333H300V300H250ZM366.666 350C366.666 353.296 365.689 356.519 363.858 359.26C362.026 362 359.423 364.137 356.378 365.398C353.332 366.659 349.981 366.99 346.748 366.346C343.515 365.703 340.546 364.116 338.215 361.785C335.884 359.454 334.296 356.485 333.653 353.252C333.01 350.018 333.34 346.667 334.602 343.622C335.863 340.577 337.999 337.974 340.74 336.142C343.481 334.311 346.703 333.333 350 333.333C354.42 333.333 358.659 335.089 361.785 338.215C364.911 341.34 366.666 345.58 366.666 350Z" fill="white"/>
</svg>
